<svg xmlns="http://www.w3.org/2000/svg" width="59" height="55" fill="none" viewBox="0 0 59 55"><path fill="#0580D9" d="M12.8563 0.641402L31.4938 3.75824L45.3124 6.06897C45.9615 6.17657 46.5312 6.59815 46.9263 7.18729C47.2615 7.69001 47.4837 8.33737 47.5067 9.00765L47.8524 18.7198L48.1964 28.4143V28.4178C48.2211 29.1039 48.0341 29.7566 47.7148 30.2558C47.3232 30.8696 46.7288 31.2771 46.0303 31.3335L32.3635 32.4342L13.9341 33.9177H13.9111L13.8229 33.923H13.7965C12.9233 33.9565 12.1155 33.6319 11.5104 33.071C10.9195 32.5224 10.5209 31.7463 10.4503 30.8626V30.8396L10.4433 30.7391V30.7126L9.92821 17.2434L9.41491 3.74589C9.40609 3.50953 9.4202 3.28022 9.45548 3.06502V3.06149C9.5719 2.36298 9.90528 1.76502 10.3851 1.33109L10.3868 1.33462C10.8754 0.893642 11.5069 0.629055 12.2107 0.600832C12.4206 0.593777 12.6358 0.607887 12.8493 0.641402H12.8563Z"/><path fill="#fff" d="M12.7698 3.92934L13.2708 17.1605L13.7576 30.0159C13.7982 31.0337 14.1492 31.2859 15.0753 31.2295L46.4289 29.7284C46.5964 29.7284 46.6899 29.5079 46.6793 29.171L45.9949 8.58432C45.9773 8.07102 45.8591 7.85229 45.4199 7.78526L13.7911 2.94861C12.9021 2.81455 12.7363 3.05444 12.7698 3.92934Z"/><path fill="#0580D9" d="M42.933 31.9791C42.933 31.9791 43.4604 33.0322 43.3845 33.4714C43.3087 33.9106 43.0353 34.0676 42.4514 34.1946C42.0351 34.2828 35.7556 35.8104 32.1766 36.6817C30.8043 37.0151 29.3632 37.2215 28.0596 36.8387C25.6942 36.1455 21.5631 34.8561 20.6653 34.6462L42.933 31.9791Z"/><path fill="#FC458C" fill-rule="evenodd" d="M42.0404 9.14881C43.5238 9.35166 45.3371 10.2213 45.4059 11.9358L45.8963 24.1297C45.958 25.6361 44.7621 26.8832 43.2557 26.8832H20.3424C18.836 26.8832 17.5396 25.6361 17.4796 24.1297L16.8622 8.78721C16.8181 7.68123 17.6754 5.81854 19.0019 6.00022L42.0404 9.14881Z" clip-rule="evenodd"/><path fill="#FA961C" fill-rule="evenodd" d="M39.4862 11.4295C40.9697 11.6324 42.7812 12.502 42.8518 14.2165L43.3421 26.4122C43.4021 27.9186 42.2079 29.1657 40.6998 29.1657H17.7865C16.2801 29.1657 14.9837 27.9186 14.9237 26.4122L14.3063 11.0679C14.2622 9.96193 15.1212 8.09924 16.4459 8.28092L39.4862 11.4295Z" clip-rule="evenodd"/><path fill="#850578" fill-rule="evenodd" d="M43.3192 26.8814L43.2539 26.8832H20.3389C18.8325 26.8832 17.536 25.6361 17.476 24.1297L16.8587 8.78716C16.8534 8.64781 16.8622 8.49788 16.8834 8.34265L39.4844 11.4313C40.9679 11.6341 42.7794 12.5037 42.85 14.2183L43.3403 26.4122C43.3474 26.571 43.3403 26.7279 43.3192 26.8814Z" clip-rule="evenodd"/><path fill="#0580D9" d="M6.23851 44.7251H8.36276V50.4823C8.36276 51.4534 8.24234 52.2327 8.00149 52.8204C7.76065 53.4081 7.36566 53.8329 6.81653 54.095C6.26548 54.3589 5.53235 54.4909 4.61714 54.4909C3.64605 54.4909 2.8686 54.3589 2.28479 54.095C1.70291 53.8329 1.28288 53.4081 1.02469 52.8204C0.764577 52.2327 0.634521 51.4534 0.634521 50.4823V44.7251H2.75877V50.4823C2.75877 51.0834 2.81176 51.5526 2.91773 51.8898C3.0237 52.227 3.20578 52.4649 3.46397 52.6036C3.72408 52.7424 4.0709 52.8117 4.50442 52.8117C4.93987 52.8117 5.28476 52.7424 5.53909 52.6036C5.79342 52.4649 5.97357 52.227 6.07955 51.8898C6.18552 51.5526 6.23851 51.0834 6.23851 50.4823V44.7251ZM12.4142 47.2627C12.7475 47.2627 13.1088 47.2742 13.498 47.2973C13.8852 47.3205 14.2638 47.3513 14.6338 47.3898C15.0037 47.4264 15.3322 47.4727 15.6193 47.5286L15.4806 48.8031C15.0374 48.7935 14.5914 48.7867 14.1425 48.7829C13.6935 48.779 13.2562 48.7771 12.8303 48.7771C12.47 48.7675 12.1926 48.7713 11.998 48.7887C11.8053 48.8079 11.6695 48.8522 11.5905 48.9216C11.5115 48.991 11.472 49.1133 11.472 49.2887C11.472 49.4929 11.5413 49.6297 11.6801 49.6991C11.8188 49.7684 12.05 49.8445 12.3737 49.9274L14.1627 50.358C14.7369 50.5064 15.1627 50.726 15.4401 51.017C15.7176 51.3079 15.8563 51.7443 15.8563 52.3262C15.8563 52.9004 15.7494 53.3397 15.5355 53.6441C15.3236 53.9504 14.9864 54.1614 14.524 54.277C14.0615 54.3926 13.4652 54.4504 12.735 54.4504C12.4479 54.4504 12.0221 54.436 11.4575 54.4071C10.893 54.3801 10.2735 54.3108 9.59916 54.199L9.73789 52.9244C9.90359 52.9341 10.1165 52.9408 10.3766 52.9447C10.6348 52.9485 10.9171 52.9505 11.2234 52.9505C11.5278 52.9505 11.8323 52.9505 12.1367 52.9505C12.6088 52.9505 12.97 52.9389 13.2205 52.9158C13.4691 52.8927 13.6396 52.8397 13.7321 52.7568C13.8245 52.674 13.8708 52.5497 13.8708 52.384C13.8708 52.1798 13.7928 52.041 13.6367 51.9678C13.4787 51.8927 13.2292 51.8137 12.8881 51.7308L11.1541 51.3002C10.7186 51.1807 10.3805 51.0285 10.1396 50.8435C9.89877 50.6586 9.73018 50.4322 9.63384 50.1644C9.53751 49.8946 9.48934 49.5748 9.48934 49.2048C9.48934 48.7347 9.58375 48.358 9.77257 48.0748C9.96139 47.7935 10.2716 47.5883 10.7032 47.4592C11.1329 47.3282 11.7032 47.2627 12.4142 47.2627ZM20.1303 47.2627C21.2863 47.2627 22.1167 47.4592 22.6216 47.8523C23.1244 48.2453 23.3759 48.831 23.3759 49.6095C23.3855 50.2376 23.2285 50.7067 22.9048 51.017C22.5811 51.3272 22.0214 51.4823 21.2256 51.4823H17.3991V50.3291H20.6592C20.9732 50.3291 21.1736 50.2626 21.2603 50.1297C21.3489 49.9948 21.3932 49.8069 21.3932 49.5661C21.3836 49.2424 21.2892 49.0179 21.11 48.8927C20.9289 48.7694 20.6254 48.7077 20.1996 48.7077C19.82 48.7077 19.5243 48.7578 19.3123 48.858C19.1004 48.9601 18.952 49.1547 18.8673 49.4418C18.7844 49.7289 18.743 50.1451 18.743 50.6904C18.743 51.2645 18.794 51.7058 18.8962 52.0141C18.9983 52.3243 19.1717 52.5401 19.4164 52.6614C19.6611 52.7809 20.0012 52.8406 20.4366 52.8406C20.7507 52.8406 21.1408 52.8291 21.6071 52.806C22.0753 52.7828 22.5455 52.7433 23.0175 52.6875L23.2111 53.9504C22.9433 54.0795 22.6379 54.1817 22.295 54.2568C21.952 54.33 21.6004 54.383 21.2401 54.4158C20.8798 54.4485 20.533 54.4649 20.1996 54.4649C19.3307 54.4649 18.6303 54.3377 18.0985 54.0834C17.5667 53.8291 17.1833 53.4379 16.9482 52.91C16.7112 52.3821 16.5927 51.7067 16.5927 50.884C16.5927 49.9881 16.7131 49.2761 16.954 48.7482C17.1948 48.2203 17.5744 47.8407 18.0927 47.6095C18.6091 47.3783 19.2883 47.2627 20.1303 47.2627ZM24.4198 47.4447H26.0296L26.2782 48.8031L26.4718 48.9852V54.2973H24.4198V47.4447ZM29.0122 47.2627H29.3735L29.177 49.1644H28.6105C28.2868 49.1644 27.9487 49.2106 27.5961 49.3031C27.2454 49.3956 26.8013 49.5343 26.2637 49.7193L26.125 48.569C26.6067 48.1432 27.0922 47.8195 27.5816 47.5979C28.0729 47.3744 28.5498 47.2627 29.0122 47.2627ZM32.5966 44.7251H34.718V51.884C34.718 52.1152 34.7825 52.2905 34.9116 52.41C35.0407 52.5314 35.2257 52.5921 35.4665 52.5921H38.8104L38.9087 54.1874C38.2516 54.2607 37.5647 54.304 36.848 54.3175C36.1312 54.331 35.4164 54.3377 34.7035 54.3377C34.0099 54.3377 33.4848 54.1508 33.1284 53.777C32.7739 53.4032 32.5966 52.9244 32.5966 52.3406V44.7251ZM39.7 47.4447H41.7404V54.2973H39.7V47.4447ZM40.2838 44.4188H41.1711C41.5776 44.4188 41.7809 44.6269 41.7809 45.043V45.78C41.7809 46.1962 41.5776 46.4043 41.1711 46.4043H40.2838C39.8772 46.4043 39.674 46.1962 39.674 45.78V45.043C39.674 44.6269 39.8772 44.4188 40.2838 44.4188ZM47.9565 47.2627C49.2513 47.2627 49.8987 47.8966 49.8987 49.1644V54.2973H47.8467V49.8031C47.8467 49.4967 47.7908 49.2858 47.6791 49.1702C47.5693 49.0545 47.3795 48.9967 47.1097 48.9967C46.8149 48.9967 46.5105 49.0545 46.1964 49.1702C45.8805 49.2858 45.4912 49.464 45.0288 49.7048L44.9335 48.5546C45.4228 48.1384 45.9248 47.8195 46.4392 47.5979C46.9517 47.3744 47.4575 47.2627 47.9565 47.2627ZM43.1849 47.4447H44.8352L45.0722 48.8031L45.2369 48.9852V54.2973H43.1849V47.4447ZM55.5744 47.4447H57.8634L56.0744 49.8291C55.9915 49.9601 55.8855 50.0854 55.7565 50.2048C55.6274 50.3243 55.5204 50.412 55.4356 50.4678V50.5227C55.5204 50.569 55.6274 50.6663 55.7565 50.8146C55.8855 50.963 55.9915 51.1114 56.0744 51.2597L58.1004 54.2973H55.8114L53.4675 50.4418L55.5744 47.4447ZM51.2334 44.5864H53.2854L53.2998 48.595C53.2998 48.9187 53.2815 49.2337 53.2449 49.5401C53.2083 49.8445 53.1524 50.1451 53.0773 50.4418C53.1428 50.727 53.1939 51.0198 53.2305 51.3204C53.2671 51.621 53.2854 51.9013 53.2854 52.1615V54.2973H51.2334V44.5864ZM52.6496 49.858H54.2449V51.1065H52.6496V49.858Z"/></svg>